<?xml version="1.0" standalone="no"?>
<!DOCTYPE svg PUBLIC "-//W3C//DTD SVG 20010904//EN"
 "http://www.w3.org/TR/2001/REC-SVG-20010904/DTD/svg10.dtd">
<svg version="1.0" xmlns="http://www.w3.org/2000/svg"
 width="60.000000pt" height="60.000000pt" viewBox="0 0 60.000000 60.000000"
 preserveAspectRatio="xMidYMid meet">

<g transform="translate(0.000000,60.000000) scale(0.100000,-0.100000)"
fill="#000000" stroke="none">
<path d="M205 568 c-49 -29 -92 -90 -101 -145 -6 -39 -3 -50 33 -112 2 -2 9 2
18 9 9 8 12 18 6 27 -9 17 4 102 19 117 7 7 10 -3 11 -30 l1 -39 13 35 c13 33
14 34 14 8 1 -14 4 -33 7 -42 5 -13 -1 -16 -25 -16 -33 0 -34 -1 -25 -24 8
-21 24 -20 40 2 13 16 13 16 14 0 0 -10 2 -18 4 -18 9 0 73 67 79 83 7 20 27
14 27 -8 0 -7 7 -15 15 -19 10 -4 15 -20 15 -51 0 -43 1 -46 23 -39 32 10 67
34 68 48 6 66 -28 150 -80 200 -40 38 -123 45 -176 14z"/>
<path d="M313 373 c-9 -3 -10 -10 -3 -24 13 -24 27 -24 39 0 8 15 7 20 -7 23
-9 3 -23 3 -29 1z"/>
</g>
</svg>
